<svg width="194" height="231" viewBox="0 0 194 231" fill="none" xmlns="http://www.w3.org/2000/svg">
<g filter="url(#filter0_ddi_567_3978)">
<path d="M189.5 107.673L154.745 75.6805L132.975 0L128.046 54.6L154.745 107.673L128.046 164.564L132.975 222.6L154.745 137.483L189.5 107.673Z" fill="url(#paint0_linear_567_3978)" shape-rendering="crispEdges"/>
</g>
<g filter="url(#filter1_ddi_567_3978)">
<path d="M4 107.673L38.7548 75.6805L60.5249 0L65.454 54.6L38.7548 107.673L65.454 164.564L60.5249 222.6L38.7548 137.483L4 107.673Z" fill="url(#paint1_linear_567_3978)" shape-rendering="crispEdges"/>
</g>
<g clip-path="url(#clip0_567_3978)" filter="url(#filter2_d_567_3978)">
<g filter="url(#filter3_d_567_3978)">
<path d="M60.4458 105.403C60.4458 105.403 60.4483 105.168 60.4558 104.71C60.4558 104.596 60.4558 104.467 60.4634 104.326C60.4684 104.184 60.4759 104.03 60.4809 103.86C60.4884 103.691 60.4909 103.511 60.506 103.317C60.5185 103.122 60.5311 102.914 60.5461 102.694C60.6113 101.814 60.7116 100.726 60.9072 99.4616C61.1028 98.1968 61.3936 96.75 61.83 95.1589C61.8575 95.0603 61.8826 94.9591 61.9127 94.8579C61.9428 94.7568 61.9729 94.6581 62.003 94.5544C62.0632 94.352 62.1258 94.1472 62.186 93.9397C62.3214 93.5274 62.4518 93.1025 62.6073 92.675C62.7527 92.245 62.9207 91.8099 63.0887 91.3647C63.2668 90.9246 63.4448 90.4718 63.6479 90.0165C64.4353 88.1953 65.4383 86.2906 66.6895 84.3707C67.9408 82.4534 69.4428 80.5209 71.2231 78.6769C73.0035 76.8329 75.0596 75.0673 77.3891 73.499C78.5551 72.7149 79.7863 71.9788 81.0802 71.3034C82.3741 70.6281 83.7331 70.0235 85.1474 69.4848C86.5591 68.946 88.031 68.4932 89.5456 68.1239C89.9242 68.0278 90.3079 67.9494 90.689 67.8634C90.8796 67.8204 91.0752 67.7849 91.2682 67.747C91.4613 67.7116 91.6544 67.6711 91.85 67.6357C92.0456 67.6028 92.2412 67.5699 92.4368 67.5371L92.7301 67.489L93.026 67.4485C93.2241 67.4207 93.4197 67.3929 93.6178 67.3651C93.8159 67.3398 94.014 67.3195 94.2146 67.2942C94.6133 67.2436 95.0145 67.2133 95.4157 67.1779C95.6163 67.1576 95.8194 67.15 96.02 67.1349C96.2231 67.1222 96.4237 67.107 96.6268 67.0995C96.8299 67.0919 97.033 67.0843 97.2387 67.0767L97.5446 67.0666H97.8505C98.0536 67.0615 98.2567 67.059 98.4623 67.0565C98.6704 67.0565 98.8736 67.0615 99.0792 67.064C99.4904 67.064 99.9016 67.0868 100.315 67.102C100.521 67.107 100.729 67.1273 100.935 67.1374C101.143 67.1526 101.348 67.1602 101.557 67.1804C101.97 67.2183 102.387 67.2512 102.803 67.3043C103.011 67.3296 103.219 67.3499 103.427 67.3777C103.635 67.4081 103.843 67.4359 104.052 67.4662C104.26 67.4941 104.468 67.5295 104.676 67.5649C104.884 67.6003 105.092 67.6332 105.3 67.6711C105.717 67.7546 106.133 67.8279 106.549 67.9241C107.382 68.1011 108.209 68.3187 109.037 68.5539C109.448 68.6779 109.862 68.7993 110.27 68.9384C110.681 69.0699 111.088 69.2192 111.496 69.3633C111.7 69.4367 111.903 69.5176 112.106 69.5961L112.409 69.7124C112.509 69.7529 112.61 69.7959 112.713 69.8364C112.913 69.9198 113.116 70.0033 113.317 70.0868C113.517 70.1753 113.716 70.2638 113.916 70.3524C117.111 71.7866 120.16 73.6963 122.916 76.0336C125.671 78.3683 128.129 81.1279 130.157 84.2139C132.188 87.2973 133.786 90.7071 134.856 94.2939C135.93 97.8807 136.471 101.639 136.469 105.398C136.464 109.157 135.915 112.916 134.834 116.495C133.758 120.077 132.153 123.479 130.12 126.557C128.086 129.636 125.626 132.388 122.873 134.712C120.12 137.039 117.071 138.939 113.881 140.363C113.68 140.452 113.482 140.54 113.282 140.626C113.081 140.71 112.878 140.791 112.677 140.874C112.577 140.915 112.477 140.958 112.377 140.998L112.073 141.114C111.87 141.19 111.669 141.271 111.466 141.345C111.058 141.489 110.651 141.638 110.243 141.767C109.834 141.906 109.423 142.025 109.011 142.149C108.186 142.382 107.362 142.599 106.529 142.774C106.115 142.87 105.699 142.941 105.285 143.022C105.077 143.06 104.869 143.093 104.661 143.125C104.453 143.161 104.247 143.196 104.039 143.222C103.831 143.252 103.623 143.28 103.417 143.31C103.209 143.338 103.001 143.358 102.795 143.383C102.382 143.437 101.965 143.467 101.552 143.505C101.346 143.523 101.138 143.533 100.932 143.548C100.727 143.56 100.521 143.578 100.313 143.583C99.9016 143.598 99.4879 143.619 99.0792 143.619C98.8736 143.619 98.6705 143.624 98.4648 143.624C98.2617 143.621 98.0561 143.619 97.853 143.616L97.5471 143.611L97.2412 143.598C97.0381 143.591 96.8349 143.583 96.6343 143.576C96.4312 143.566 96.2306 143.55 96.03 143.538C95.8294 143.523 95.6263 143.515 95.4282 143.495C95.027 143.457 94.6283 143.426 94.2321 143.376C94.034 143.353 93.836 143.33 93.6379 143.305C93.4398 143.277 93.2442 143.249 93.0486 143.222L92.7552 143.179L92.4618 143.13C92.2662 143.098 92.0732 143.065 91.8776 143.032C91.6845 142.996 91.4914 142.958 91.2983 142.921C91.1053 142.883 90.9122 142.85 90.7216 142.804C90.3405 142.718 89.9568 142.64 89.5832 142.544C88.0737 142.174 86.6093 141.719 85.2051 141.18C83.7983 140.644 82.4443 140.037 81.1579 139.362C79.8716 138.686 78.6454 137.95 77.4869 137.168C75.17 135.603 73.1288 133.84 71.3585 132.001C69.5907 130.159 68.0988 128.237 66.8575 126.325C65.6163 124.412 64.6233 122.515 63.8435 120.704C63.6429 120.254 63.4674 119.801 63.2918 119.364C63.1263 118.921 62.9583 118.488 62.8154 118.058C62.6624 117.633 62.5346 117.208 62.3992 116.799C62.339 116.591 62.2788 116.389 62.2186 116.186C62.1885 116.085 62.1584 115.984 62.1309 115.885C62.1033 115.787 62.0757 115.686 62.0506 115.587C61.6218 114.006 61.3335 112.567 61.1429 111.31C60.9498 110.05 60.852 108.97 60.7893 108.095C60.7768 107.875 60.7643 107.67 60.7517 107.475C60.7392 107.283 60.7367 107.101 60.7292 106.934C60.7241 106.767 60.7166 106.612 60.7116 106.471C60.7066 106.329 60.7066 106.203 60.7041 106.089C60.6991 105.636 60.6966 105.401 60.6966 105.401H60.4533L60.4458 105.403ZM60.689 105.403C60.689 105.403 60.6915 105.639 60.6991 106.091C60.6991 106.205 60.6991 106.332 60.7066 106.473C60.7116 106.615 60.7191 106.767 60.7241 106.936C60.7317 107.103 60.7342 107.283 60.7467 107.477C60.7592 107.67 60.7718 107.877 60.7868 108.097C60.8495 108.972 60.9523 110.053 61.1454 111.31C61.341 112.567 61.6294 114.004 62.0632 115.584C62.0907 115.683 62.1158 115.784 62.1434 115.883C62.1735 115.982 62.2036 116.083 62.2312 116.184C62.2913 116.386 62.3515 116.589 62.4142 116.796C62.5471 117.206 62.6775 117.628 62.8305 118.053C62.9759 118.481 63.1439 118.913 63.3094 119.356C63.4874 119.794 63.6629 120.244 63.8636 120.694C64.6459 122.503 65.6439 124.397 66.8876 126.304C68.1288 128.212 69.6233 130.129 71.3936 131.963C73.1639 133.797 75.2051 135.55 77.5195 137.108C78.678 137.887 79.9017 138.618 81.188 139.288C82.4719 139.961 83.8259 140.561 85.2276 141.094C86.6318 141.628 88.0912 142.078 89.5982 142.445C89.9744 142.541 90.3555 142.62 90.7341 142.703C90.9247 142.746 91.1178 142.781 91.3084 142.819C91.5014 142.855 91.692 142.895 91.8876 142.928C92.0807 142.961 92.2763 142.991 92.4694 143.024L92.7627 143.072L93.0561 143.113C93.2517 143.141 93.4473 143.168 93.6454 143.196C93.841 143.222 94.0391 143.242 94.2372 143.265C94.6333 143.315 95.032 143.345 95.4307 143.381C95.6313 143.401 95.8319 143.409 96.0325 143.424C96.2331 143.437 96.4337 143.452 96.6369 143.459C96.8375 143.467 97.0406 143.474 97.2437 143.482L97.5471 143.492H97.8505C98.0536 143.497 98.2567 143.5 98.4598 143.502C98.6629 143.502 98.8685 143.497 99.0717 143.495C99.4804 143.495 99.8891 143.472 100.3 143.457C100.506 143.452 100.712 143.431 100.917 143.421C101.123 143.406 101.328 143.399 101.534 143.378C101.945 143.34 102.359 143.308 102.773 143.257C102.978 143.232 103.186 143.211 103.392 143.184C103.598 143.153 103.806 143.125 104.011 143.095C104.22 143.067 104.425 143.032 104.631 142.996C104.836 142.961 105.045 142.928 105.253 142.89C105.664 142.807 106.08 142.736 106.491 142.64C107.319 142.465 108.141 142.248 108.961 142.012C109.37 141.888 109.781 141.77 110.187 141.63C110.596 141.501 111 141.352 111.406 141.208C111.609 141.135 111.81 141.054 112.01 140.978L112.314 140.862C112.414 140.821 112.514 140.778 112.615 140.738C112.815 140.654 113.016 140.571 113.217 140.49C113.415 140.401 113.613 140.315 113.813 140.227C116.988 138.8 120.017 136.903 122.755 134.581C125.493 132.261 127.936 129.517 129.949 126.451C131.965 123.388 133.555 119.998 134.618 116.437C135.684 112.875 136.223 109.139 136.221 105.403C136.216 101.667 135.671 97.9338 134.598 94.3773C133.527 90.8184 131.935 87.4365 129.914 84.3808C127.896 81.3227 125.451 78.5883 122.713 76.2789C119.977 73.967 116.948 72.08 113.778 70.6635C113.58 70.575 113.382 70.489 113.184 70.4004C112.983 70.317 112.783 70.236 112.585 70.1525C112.484 70.1121 112.384 70.0691 112.284 70.0311L111.983 69.9148C111.782 69.8389 111.582 69.7579 111.379 69.6871C110.972 69.5455 110.571 69.3962 110.162 69.2672C109.756 69.1306 109.347 69.0117 108.939 68.8903C108.119 68.6601 107.299 68.4426 106.474 68.2706C106.063 68.1745 105.649 68.1037 105.238 68.0227C105.032 67.9848 104.824 67.9519 104.618 67.919C104.413 67.8836 104.207 67.8507 103.999 67.8229C103.793 67.7951 103.585 67.7647 103.38 67.7369C103.174 67.7091 102.966 67.6888 102.76 67.6635C102.349 67.6104 101.935 67.5826 101.527 67.5446C101.321 67.5269 101.115 67.5168 100.91 67.5016C100.704 67.4915 100.501 67.4713 100.295 67.4662C99.8866 67.4511 99.4779 67.4308 99.0691 67.4308C98.866 67.4308 98.6604 67.4258 98.4598 67.4258C98.2567 67.4283 98.0511 67.4308 97.848 67.4333L97.5421 67.4384L97.2412 67.4511C97.0406 67.4586 96.84 67.4662 96.6394 67.4738C96.4388 67.4839 96.2382 67.4991 96.0376 67.5118C95.837 67.5244 95.6364 67.5345 95.4383 67.5548C95.0396 67.5927 94.6434 67.6231 94.2497 67.6736C94.0516 67.6964 93.856 67.7192 93.6579 67.7445C93.4623 67.7723 93.2667 67.8001 93.0712 67.8279L92.7778 67.8684L92.4869 67.9165C92.2938 67.9494 92.1007 67.9822 91.9077 68.0151C91.7146 68.0505 91.524 68.0885 91.3309 68.1264C91.1404 68.1644 90.9473 68.1973 90.7592 68.2428C90.3806 68.3263 89.9994 68.4072 89.6258 68.5033C88.1263 68.8701 86.672 69.3229 85.2753 69.8591C83.8786 70.3928 82.5346 70.9949 81.2557 71.6652C79.9769 72.3355 78.7607 73.0665 77.6098 73.843C75.3079 75.3987 73.2793 77.1491 71.5215 78.9779C69.7637 80.8067 68.2818 82.719 67.0506 84.6161C65.8194 86.5157 64.8315 88.4002 64.0566 90.2012C63.8585 90.6489 63.683 91.0966 63.5075 91.5342C63.342 91.9743 63.1765 92.4043 63.0336 92.8293C62.8806 93.2517 62.7527 93.6716 62.6223 94.0814C62.5621 94.2863 62.502 94.4886 62.4418 94.691C62.4117 94.7922 62.3841 94.8908 62.354 94.9895C62.3264 95.0881 62.3014 95.1868 62.2738 95.2854C61.8475 96.8562 61.5616 98.2854 61.3711 99.5349C61.1805 100.787 61.0827 101.86 61.02 102.73C61.0075 102.947 60.9949 103.152 60.9824 103.344C60.9699 103.537 60.9674 103.716 60.9598 103.883C60.9548 104.05 60.9473 104.202 60.9423 104.341C60.9373 104.48 60.9373 104.607 60.9348 104.72C60.9298 105.171 60.9272 105.403 60.9272 105.403H60.684H60.689Z" fill="#FF0006"/>
<path d="M123.276 85.5064C123.276 89.2324 126.27 92.25 129.961 92.25C133.652 92.25 136.646 89.2298 136.646 85.5064C136.646 81.783 133.652 78.7628 129.961 78.7628C126.27 78.7628 123.276 81.783 123.276 85.5064Z" fill="#CCECFC"/>
<path d="M106.411 68.0176C106.411 72.1154 109.706 75.4391 113.768 75.4391C117.83 75.4391 121.125 72.1154 121.125 68.0176C121.125 63.9199 117.833 60.5962 113.768 60.5962C109.706 60.5962 106.411 63.9199 106.411 68.0176Z" fill="#CCECFC"/>
<path d="M75.1948 69.3001C75.1948 73.5446 78.6051 76.9846 82.8127 76.9846C87.0203 76.9846 90.4305 73.5446 90.4305 69.3001C90.4305 65.0556 87.0203 61.6155 82.8127 61.6155C78.6051 61.6155 75.1948 65.0556 75.1948 69.3001Z" fill="#CCECFC"/>
<path d="M70.764 87.186C70.764 91.0283 67.6773 94.1421 63.8683 94.1421C60.0594 94.1421 56.9727 91.0283 56.9727 87.186C56.9727 83.3437 60.0594 80.2299 63.8683 80.2299C67.6773 80.2299 70.764 83.3437 70.764 87.186Z" fill="#CCECFC"/>
<path d="M127.993 108.907C127.993 111.775 130.298 114.1 133.141 114.1C135.985 114.1 138.289 111.775 138.289 108.907C138.289 106.038 135.985 103.714 133.141 103.714C130.298 103.714 127.993 106.038 127.993 108.907Z" fill="#069BA6"/>
<path d="M82.5771 142.215C82.5771 145.518 85.2326 148.197 88.5074 148.197C91.7823 148.197 94.4377 145.518 94.4377 142.215C94.4377 138.911 91.7823 136.233 88.5074 136.233C85.2326 136.233 82.5771 138.911 82.5771 142.215Z" fill="#CCECFC"/>
<path d="M124.086 129.325C124.086 133.05 127.08 136.068 130.771 136.068C134.463 136.068 137.457 133.048 137.457 129.325C137.457 125.601 134.463 122.581 130.771 122.581C127.078 122.581 124.086 125.601 124.086 129.325Z" fill="#CCECFC"/>
<path d="M59.4904 134.265C61.8976 137.566 66.5014 138.276 69.7762 135.848C73.0485 133.42 73.7531 128.776 71.3459 125.472C68.9387 122.171 64.3349 121.46 61.0601 123.889C57.7878 126.317 57.0831 130.961 59.4904 134.265Z" fill="#069BA6"/>
<path d="M55.2124 109.453C55.2124 113.179 58.2064 116.197 61.8975 116.197C65.5885 116.197 68.5825 113.176 68.5825 109.453C68.5825 105.73 65.5885 102.709 61.8975 102.709C58.2039 102.709 55.2124 105.73 55.2124 109.453Z" fill="#CCECFC"/>
<path d="M89.1064 144.567H87.9329V143.381H86.7568V141.899H87.9304V140.715H89.1064V141.899H90.2824V143.381H89.1064V144.567Z" fill="white"/>
<path d="M84.1241 140.558V144.646C84.1241 145.255 84.6181 145.751 85.2199 145.751H91.8172C92.4215 145.751 92.9155 145.253 92.9155 144.646V140.558C92.9155 139.948 92.4215 139.529 91.8172 139.529H90.5759H89.9867H87.0479H85.2174C84.6131 139.529 84.1216 139.948 84.1216 140.558H84.1241ZM86.757 141.899H87.933V140.712H89.109V141.899H90.2851V143.381H89.109V144.567H87.933V143.381H86.757V141.899Z" fill="#DB4744"/>
<path d="M89.989 139.098C89.989 138.828 89.7482 138.585 89.4799 138.585H87.5592C87.2909 138.585 87.0501 138.828 87.0501 139.098V139.528H86.4634V139.098C86.4634 138.489 86.9574 137.991 87.5592 137.991H89.4799C90.0817 137.991 90.5782 138.489 90.5782 139.098V139.526H89.989V139.098Z" fill="#DB4744"/>
<path d="M80.3224 67.107L79.9764 69.763L78.1885 70.3018C78.1885 70.3018 78.0932 71.5994 77.8124 71.7562C77.529 71.9156 76.9648 71.7258 76.9648 71.7258V70.4611L78.1885 69.29L78.7226 67.2967L80.3224 67.107Z" fill="white"/>
<path d="M86.4157 66.9806H82.5742V70.2158H86.4157V66.9806Z" fill="white"/>
<path d="M78.2363 72.2697C78.2363 72.9552 78.7855 73.5091 79.465 73.5091C80.1446 73.5091 80.6937 72.9552 80.6937 72.2697C80.6937 71.5842 80.1446 71.0302 79.465 71.0302C78.7855 71.0302 78.2363 71.5842 78.2363 72.2697ZM79.7133 72.5429C79.6481 72.6036 79.5603 72.6415 79.465 72.6415C79.3697 72.6415 79.282 72.6036 79.2168 72.5429C79.1441 72.4746 79.0989 72.3785 79.0989 72.2697C79.0989 72.2469 79.0989 72.2242 79.1064 72.2014C79.1365 72.0294 79.287 71.8979 79.4675 71.8979C79.6481 71.8979 79.796 72.0294 79.8286 72.2014C79.8336 72.2242 79.8336 72.2444 79.8336 72.2697C79.8336 72.3785 79.7885 72.4746 79.7158 72.5429H79.7133Z" fill="#DB4744"/>
<path d="M85.7139 72.2697C85.7139 72.9552 86.263 73.5091 86.9426 73.5091C87.6221 73.5091 88.1712 72.9552 88.1712 72.2697C88.1712 71.5842 87.6221 71.0302 86.9426 71.0302C86.263 71.0302 85.7139 71.5842 85.7139 72.2697ZM86.5765 72.2697C86.5765 72.2469 86.5765 72.2242 86.584 72.2014C86.6141 72.0294 86.7645 71.8979 86.9451 71.8979C87.1256 71.8979 87.2735 72.0294 87.3061 72.2014C87.3112 72.2242 87.3137 72.2444 87.3137 72.2697C87.3137 72.3785 87.2685 72.4746 87.1958 72.5429C87.1306 72.6036 87.0429 72.6415 86.9476 72.6415C86.8523 72.6415 86.7645 72.6036 86.6993 72.5429C86.6266 72.4746 86.5815 72.3785 86.5815 72.2697H86.5765Z" fill="#DB4744"/>
<path d="M82 66.6416V70.6862H86.5587V66.6416H82ZM83.0732 68.2478H83.9609V67.3524H84.8485V68.2478H85.7362V69.1433H84.8485V70.0387H83.9609V69.1433H83.0732V68.2478Z" fill="#DB4744"/>
<path d="M76.6641 71.4299C76.6641 71.6272 76.6691 71.8296 76.6691 72.0269C77.138 72.0269 77.6044 72.0269 78.0733 72.0218C78.2262 71.3363 78.8857 70.7874 79.5954 70.8911C80.2197 70.9265 80.6585 71.4501 80.8491 72.0092V72.0597H85.5833C85.6585 71.5589 86.0021 71.1441 86.4635 70.9695C86.6139 70.9139 86.7744 70.881 86.9449 70.881C87.5567 70.881 88.0758 71.2857 88.2538 71.8422C88.2764 71.9105 88.2939 71.9839 88.304 72.0572H88.5547V66.1762H82.7674V66.1559H81.4108C81.4108 66.1559 81.4108 66.1686 81.4108 66.1762H80.8491V66.4949C80.1295 66.4898 79.4098 66.4848 78.6851 66.4949C78.7428 67.2107 78.4018 67.8583 78.2388 68.5387C78.136 68.7992 78.151 69.1711 77.8476 69.29C77.5442 69.4392 77.2358 69.5809 76.9324 69.72C76.9123 70.2866 76.9274 70.8456 76.9223 71.4122C76.8346 71.4173 76.7518 71.4223 76.6641 71.4274V71.4299ZM82.6094 68.6955C82.6094 67.6939 83.4143 66.8844 84.4048 66.8844C85.3953 66.8844 86.2002 67.6964 86.2002 68.6955C86.2002 69.6947 85.3953 70.5066 84.4048 70.5066C83.4118 70.5066 82.6094 69.6947 82.6094 68.6955ZM78.3466 69.1888C78.4895 68.6399 78.6651 68.0986 78.8105 67.5547C79.1766 67.5396 79.5452 67.5446 79.9113 67.5446C79.9314 68.0935 79.9213 68.645 79.9163 69.1938C79.3922 69.1938 78.8732 69.1989 78.3466 69.1888ZM76.9875 70.8861C77.306 70.881 77.6219 70.881 77.9404 70.8861C77.9454 71.0783 77.9454 71.268 77.9404 71.4603C77.6219 71.4653 77.2985 71.4653 76.9825 71.4552C76.9775 71.268 76.9775 71.0783 76.9875 70.8861Z" fill="#3C454F"/>
<path d="M81.4082 65.4224C81.4082 65.043 81.7116 64.7369 82.0877 64.7369C82.4639 64.7369 82.7673 65.043 82.7673 65.4224C82.7673 65.5489 82.7673 66.0118 82.7673 66.1585H81.4107C81.4107 66.0092 81.4107 65.5489 81.4107 65.4224H81.4082Z" fill="#DB4744"/>
<path d="M81.3057 66.1311C81.3057 66.1996 81.3608 66.2555 81.4285 66.2555H82.7926C82.8603 66.2555 82.9155 66.1996 82.9155 66.1311C82.9155 66.0626 82.8603 66.0067 82.7926 66.0067H81.4285C81.3608 66.0067 81.3057 66.0626 81.3057 66.1311Z" fill="#3C454F"/>
<path d="M108.577 67.3094C108.577 67.532 108.605 67.7495 108.653 67.9569C108.653 67.9645 108.655 67.9721 108.658 67.9797C108.66 67.9923 108.663 68.005 108.668 68.0176C108.76 68.4021 108.928 68.7739 109.139 69.1255C109.415 69.5859 109.768 70.0134 110.137 70.3928H112.988C113.081 70.3928 113.161 70.4485 113.196 70.537L113.658 71.7537L115.292 67.661C115.325 67.58 115.403 67.5244 115.491 67.5219C115.568 67.5168 115.659 67.5674 115.696 67.6483L116.448 69.209H117.863C117.863 69.209 117.885 69.209 117.898 69.2115C118.013 69.0244 118.118 68.8321 118.206 68.6374C118.296 68.435 118.369 68.2301 118.419 68.0202C118.422 68.0075 118.424 67.9949 118.429 67.9822C118.429 67.9746 118.432 67.967 118.434 67.9595C118.485 67.752 118.51 67.5345 118.51 67.3119C118.51 67.2993 118.51 67.2866 118.51 67.274C118.495 66.1509 117.82 65.1871 116.855 64.7622C116.817 64.7495 116.777 64.7369 116.739 64.7243C116.431 64.6028 116.095 64.532 115.744 64.532C114.874 64.5345 114.101 64.9468 113.597 65.5843C113.562 65.6096 113.545 65.6273 113.545 65.6273C113.545 65.6273 113.545 65.6273 113.542 65.6273C113.038 64.9646 112.246 64.5371 111.353 64.5371C111.348 64.5371 111.343 64.5371 111.341 64.5371C111.338 64.5371 111.333 64.5371 111.331 64.5371C110.939 64.5371 110.568 64.6205 110.23 64.7673C109.741 64.9393 109.292 65.3035 108.931 65.9283C108.863 66.0472 108.806 66.1686 108.758 66.2875C108.625 66.6188 108.57 66.9502 108.577 67.279C108.577 67.2917 108.577 67.3043 108.577 67.317V67.3094ZM117.7 67.3068C117.695 67.2942 117.69 67.2816 117.69 67.2664C117.642 66.2849 116.794 65.4274 115.822 65.3819C115.744 65.3769 115.679 65.2807 115.679 65.1694C115.679 65.0556 115.754 64.9671 115.852 64.9721C117.023 65.0303 118.041 66.0573 118.098 67.2386C118.098 67.2638 118.096 67.2866 118.086 67.3068C118.058 67.3701 117.988 67.4131 117.903 67.4131C117.81 67.4131 117.73 67.3676 117.702 67.3068H117.7Z" fill="#DB4744"/>
<path d="M113.444 72.4391C113.477 72.5251 113.557 72.5808 113.65 72.5833C113.74 72.5833 113.82 72.5277 113.856 72.4442L115.516 68.2908L116.11 69.5252C116.147 69.6011 116.225 69.6517 116.308 69.6517H117.589C116.636 70.9113 115.237 71.8422 114.936 72.0572C114.643 72.2646 114.272 72.4999 113.986 72.6769C113.71 72.8565 113.545 72.9476 113.545 72.9476C113.545 72.9476 113.545 72.9476 113.542 72.9476H113.54C113.54 72.9476 113.374 72.8565 113.098 72.6769C112.812 72.4999 112.439 72.2646 112.148 72.0572C111.952 71.9181 111.293 71.4779 110.593 70.8405H112.832L113.442 72.4442L113.444 72.4391Z" fill="#DB4744"/>
<path d="M68.3091 130.976L62.8803 127.825L62.4315 128.083L62.0303 128.938L62.2885 129.39L67.5543 132.355L68.3091 130.976Z" fill="white"/>
<path d="M66.2421 130.411L65.833 131.131L65.9918 131.223L66.4009 130.503L66.2421 130.411Z" fill="#3C454F"/>
<path d="M66.8245 131.705L67.2332 130.984L67.0752 130.893L66.6665 131.611L66.8245 131.705Z" fill="#3C454F"/>
<path d="M66.4085 131.462L66.7119 130.931L66.5515 130.837L66.248 131.371L66.4085 131.462Z" fill="#3C454F"/>
<path d="M67.2435 131.945L67.5444 131.411L67.3864 131.32L67.083 131.852L67.2435 131.945Z" fill="#3C454F"/>
<path d="M62.4416 128.459C62.4416 128.459 62.6722 127.918 63.0985 128.166L66.1978 129.957L65.606 130.997L62.439 129.165C62.439 129.165 62.1356 128.991 62.439 128.459H62.4416Z" fill="#DB4744"/>
<path d="M62.3135 128.026C62.3634 127.971 62.4083 127.933 62.4332 127.911C62.3908 127.948 62.3509 127.988 62.3185 128.029C62.3185 128.029 62.316 128.029 62.3135 128.026Z" fill="#3C454F"/>
<path d="M61.6868 127.954L61.6918 127.946C61.7344 127.87 61.8648 127.865 61.9852 127.933L62.1757 128.045C62.2033 128.004 62.256 127.992 62.2986 128.017C62.3036 128.019 62.3086 128.024 62.3137 128.029C62.2058 128.148 62.0629 128.348 61.9751 128.637C61.9676 128.637 61.9576 128.631 61.9501 128.626C61.9074 128.601 61.8924 128.548 61.9124 128.505L61.7219 128.394C61.604 128.325 61.5413 128.209 61.5865 128.133L61.5915 128.126L61.6893 127.954H61.6868Z" fill="#00A4A1"/>
<path d="M59.3447 126.598L61.6868 127.954L61.589 128.123L59.5353 126.937L59.3447 126.598Z" fill="white"/>
<path d="M62.1655 129.395L67.341 132.388L67.2382 132.57L67.5591 132.757L67.6469 132.603L67.8199 132.299L68.4393 131.204L68.4468 131.199L68.6675 130.809L68.3465 130.622L68.2462 130.799L63.0707 127.807C62.8199 127.663 62.5968 127.764 62.4363 127.908C62.3936 127.946 62.3535 127.986 62.3209 128.027C62.3209 128.027 62.3184 128.027 62.3159 128.024C62.2081 128.143 62.0652 128.343 61.9774 128.631V128.637C61.8972 128.874 61.857 129.211 62.1705 129.39L62.1655 129.395ZM62.3485 128.409C62.3485 128.409 62.6369 127.794 63.0757 128.047L68.1635 130.989L68.0732 131.146V131.151L67.5466 132.074V132.079L67.4538 132.236L62.331 129.274C62.331 129.274 62.02 128.986 62.3485 128.406V128.409Z" fill="#3C454F"/>
<path d="M67.8179 132.299L68.4372 131.204L68.4448 131.199L68.3996 131.277L70.6288 132.567L70.0471 133.589L67.8179 132.299Z" fill="#525F6C"/>
<path d="M70.6288 132.567L70.9698 131.965L71.3885 132.208L70.1273 134.427L69.7085 134.184L70.047 133.589L70.6288 132.567Z" fill="#3C454F"/>
<path d="M65.7815 83.3665H62.6245V84.3555H65.7815V83.3665Z" fill="#2F363B"/>
<path d="M60.8845 86.1793C60.8845 84.9044 61.7772 83.8699 62.8754 83.8699H65.5234C66.6242 83.8699 67.5144 84.9044 67.5144 86.1793V91.3571C67.5144 91.4279 67.5093 91.4988 67.5043 91.5671C67.5043 91.5797 67.5068 91.5898 67.5068 91.6025C67.5068 91.643 67.4993 91.6809 67.4868 91.7138C67.4868 91.7214 67.4868 91.7315 67.4843 91.7391H67.4742C67.4316 91.8251 67.3539 91.8858 67.2611 91.8858H61.1302C61.0374 91.8858 60.9597 91.8276 60.9171 91.7391H60.907C60.907 91.7391 60.907 91.7214 60.9045 91.7138C60.892 91.6809 60.8845 91.643 60.8845 91.6025C60.8845 91.5898 60.8845 91.5797 60.887 91.5671C60.882 91.4988 60.877 91.4279 60.877 91.3571V86.1793H60.8845Z" fill="#434B54"/>
<path d="M61.3936 88.7214C61.3936 89.4474 61.9026 90.0367 62.527 90.0367H65.872C66.4989 90.0367 67.0054 89.4474 67.0054 88.7214V87.831C67.0054 87.1051 66.4989 86.5157 65.872 86.5157H62.527C61.9001 86.5157 61.3936 87.1051 61.3936 87.831V88.7214Z" fill="#E9F6F5"/>
<path d="M66.2005 87.0773H62.2061V87.6085H66.2005V87.0773Z" fill="#FDC76C"/>
<path d="M66.2005 88.0511H62.2061V88.5823H66.2005V88.0511Z" fill="#FDC76C"/>
<path d="M65.7641 89.0275H62.6372V89.5587H65.7641V89.0275Z" fill="#FDC76C"/>
<path d="M63.5598 82.0562H63.4019V83.369H63.5598V82.0562Z" fill="#F39226"/>
<path d="M63.9212 82.0562H63.7632V83.369H63.9212V82.0562Z" fill="#F39226"/>
<path d="M66.0925 82.0562H65.9346V83.369H66.0925V82.0562Z" fill="#F39226"/>
<path d="M65.7312 82.0562H65.5732V83.369H65.7312V82.0562Z" fill="#F39226"/>
<path d="M64.2844 82.0562H64.1265V83.369H64.2844V82.0562Z" fill="#F39226"/>
<path d="M64.6458 82.0562H64.4878V83.369H64.6458V82.0562Z" fill="#F39226"/>
<path d="M63.199 82.0562H63.041V83.369H63.199V82.0562Z" fill="#F39226"/>
<path d="M65.3679 82.0562H65.21V83.369H65.3679V82.0562Z" fill="#F39226"/>
<path d="M62.8352 82.0562H62.6772V83.369H62.8352V82.0562Z" fill="#F39226"/>
<path d="M62.4739 82.0562H62.3159V83.369H62.4739V82.0562Z" fill="#F39226"/>
<path d="M65.0066 82.0562H64.8486V83.369H65.0066V82.0562Z" fill="#F39226"/>
<path d="M62.113 82.0562H61.9751V83.369H62.113V82.0562Z" fill="#F39226"/>
<path d="M66.4283 82.0562H66.2954V83.369H66.4283V82.0562Z" fill="#F39226"/>
<path d="M66.2954 82.0562H66.0923V83.369H66.2954V82.0562Z" fill="#E1AF65"/>
<path d="M65.9346 82.0562H65.7314V83.369H65.9346V82.0562Z" fill="#E1AF65"/>
<path d="M65.5708 82.0562H65.3677V83.369H65.5708V82.0562Z" fill="#E1AF65"/>
<path d="M65.2099 82.0562H65.0068V83.369H65.2099V82.0562Z" fill="#E1AF65"/>
<path d="M64.8486 82.0562H64.6455V83.369H64.8486V82.0562Z" fill="#E1AF65"/>
<path d="M64.4878 82.0562H64.2847V83.369H64.4878V82.0562Z" fill="#E1AF65"/>
<path d="M64.124 82.0562H63.9209V83.369H64.124V82.0562Z" fill="#E1AF65"/>
<path d="M63.7632 82.0562H63.5601V83.369H63.7632V82.0562Z" fill="#E1AF65"/>
<path d="M63.4018 82.0562H63.1987V83.369H63.4018V82.0562Z" fill="#E1AF65"/>
<path d="M63.041 82.0562H62.8379V83.369H63.041V82.0562Z" fill="#E1AF65"/>
<path d="M62.6772 82.0562H62.4741V83.369H62.6772V82.0562Z" fill="#E1AF65"/>
<path d="M62.3159 82.0562H62.1128V83.369H62.3159V82.0562Z" fill="#E1AF65"/>
<path d="M62.1858 90.1885C62.5544 90.4364 62.6747 90.917 62.4842 91.3065L61.0474 90.3403C61.3307 90.014 61.8172 89.9406 62.1858 90.1885Z" fill="white"/>
<path d="M61.2204 91.6506C60.8518 91.4027 60.7314 90.9221 60.922 90.5325L62.3588 91.4988C62.0755 91.8251 61.589 91.8984 61.2204 91.6506Z" fill="white"/>
<path d="M130.263 110.227C130.273 108.848 131.236 107.948 132.522 107.662V105.487H132.334C132.181 105.487 132.058 105.363 132.058 105.209C132.058 105.054 132.181 104.93 132.334 104.93H133.141V110.227H130.263Z" fill="#E9E6E3"/>
<path d="M133.141 104.93H133.949C134.101 104.93 134.224 105.054 134.224 105.209C134.224 105.363 134.101 105.487 133.949 105.487H133.76V107.662C135.047 107.945 136.01 108.846 136.02 110.227H133.144V104.93H133.141Z" fill="#FFF9F6"/>
<path d="M136.017 110.227C136.017 110.227 136.017 110.242 136.017 110.25C136.017 111.853 134.756 112.88 133.166 112.88C133.156 112.88 133.149 112.88 133.139 112.88V110.227H136.015H136.017Z" fill="#E05B5A"/>
<path d="M130.263 110.25C130.263 110.25 130.263 110.235 130.263 110.227H133.141V112.88C131.564 112.868 130.263 111.843 130.263 110.25Z" fill="#DB4744"/>
<path d="M62.8729 106.975H61.9451C61.8674 106.975 61.8047 106.912 61.8047 106.833C61.8047 106.754 61.8674 106.693 61.9451 106.693H62.8729C62.9506 106.693 63.0133 106.757 63.0133 106.833C63.0133 106.909 62.9506 106.975 62.8729 106.975Z" fill="#3C454F"/>
<path d="M62.8729 106.133H61.9451C61.8674 106.133 61.8047 106.069 61.8047 105.991C61.8047 105.912 61.8674 105.851 61.9451 105.851H62.8729C62.9506 105.851 63.0133 105.915 63.0133 105.991C63.0133 106.067 62.9506 106.133 62.8729 106.133Z" fill="#3C454F"/>
<path d="M60.9418 107.237C60.4829 107.237 59.8961 107.356 59.6504 107.409V109.509C59.6504 109.509 60.1594 110.546 61.8746 110.546C63.5897 110.546 63.8179 109.43 63.8179 109.43V107.407C63.527 107.346 62.7848 107.227 62.2607 107.435C62.2607 107.435 61.5386 107.235 60.9418 107.235V107.237ZM61.8044 109.362C61.8044 109.284 61.867 109.22 61.9448 109.22H62.8726C62.9503 109.22 63.013 109.284 63.013 109.362C63.013 109.44 62.9503 109.504 62.8726 109.504H61.9448C61.867 109.504 61.8044 109.44 61.8044 109.362ZM61.8044 108.59C61.8044 108.512 61.867 108.451 61.9448 108.451H62.8726C62.9503 108.451 63.013 108.515 63.013 108.59C63.013 108.666 62.9503 108.732 62.8726 108.732H61.9448C61.867 108.732 61.8044 108.669 61.8044 108.59ZM61.8044 107.819C61.8044 107.741 61.867 107.677 61.9448 107.677H62.8726C62.9503 107.677 63.013 107.741 63.013 107.819C63.013 107.897 62.9503 107.958 62.8726 107.958H61.9448C61.867 107.958 61.8044 107.895 61.8044 107.819Z" fill="#DB4744"/>
<path d="M59.2896 104.475V109.362C59.2896 110.237 59.9992 110.956 60.8693 110.956H61.1476C61.1526 111.11 61.3332 111.236 61.5789 111.282V112.187H61.5714C61.426 112.187 61.3081 112.306 61.3081 112.453V113.374C61.3081 113.52 61.426 113.639 61.5714 113.639H61.5789V115.316H61.95V113.639H61.9576C62.103 113.639 62.2208 113.52 62.2208 113.374V112.453C62.2208 112.306 62.103 112.187 61.9576 112.187H61.95V111.282C62.1958 111.236 62.3763 111.11 62.3813 110.956H62.6597C63.5273 110.956 64.2394 110.24 64.2394 109.362V104.475C64.2394 104.268 64.0739 104.101 63.8683 104.101H59.6607C59.455 104.101 59.2896 104.268 59.2896 104.475ZM59.6531 105.102H63.8206V109.433C63.8206 109.433 63.5925 110.548 61.8773 110.548C60.1622 110.548 59.6531 109.511 59.6531 109.511V105.102Z" fill="#3C454F"/>
<path d="M130.232 82.4888L132.454 88.5747L131.872 89.6725L130.721 89.3639L128.394 83.1212L130.232 82.4888Z" fill="#F7F8F9"/>
<path d="M128.54 83.1186L130.796 89.2273L131.631 89.5688L131.91 89.4651L132.318 88.6557L130.062 82.547L130.365 82.4154L132.657 88.6152L132.08 89.7534L132.509 90.9145L132.318 90.9853L132.308 90.9878L132.118 91.0612L131.689 89.9002L130.516 89.4221L128.224 83.2198L128.54 83.1186Z" fill="#404E51"/>
<path d="M131.078 85.6203L132.148 88.5241L131.815 89.2678L131.574 89.3563L130.839 89.0148L129.766 86.1135L131.078 85.6203Z" fill="#DB4744"/>
<path d="M128.146 82.6003L127.747 81.5227C127.554 80.9991 127.818 80.4174 128.337 80.2226L129.084 82.2462L128.146 82.5978V82.6003Z" fill="#DB4744"/>
<path d="M128.336 80.2249C128.855 80.0301 129.432 80.2957 129.625 80.8193L130.024 81.8969L129.086 82.2485L128.339 80.2249H128.336Z" fill="#C54140"/>
<path d="M130.024 81.8944L130.358 81.7679C130.543 81.6971 130.759 81.8084 130.834 82.0183C130.912 82.2257 130.822 82.4509 130.636 82.5217L129.362 82.9998L129.26 82.724L129.084 82.2485L130.022 81.8969L130.024 81.8944Z" fill="#30393A"/>
<path d="M127.813 82.7265L128.146 82.6001L129.084 82.2485L129.259 82.724L129.362 82.9997L128.088 83.4778C127.903 83.5486 127.687 83.4373 127.612 83.2274C127.534 83.02 127.624 82.7948 127.81 82.724L127.813 82.7265Z" fill="#404E51"/>
<path d="M132.662 125.996C132.677 126.008 132.69 126.024 132.705 126.036L133.628 125.315C133.628 125.315 133.397 123.059 130.962 122.96C128.527 123.094 128.292 125.313 128.292 125.313L129.237 126.049C129.272 126.011 129.295 125.991 129.295 125.991C129.728 125.543 130.368 125.252 131.21 125.376C131.21 125.376 132.008 125.399 132.657 125.991C132.657 125.991 132.657 125.991 132.662 125.996ZM131.792 124.443H131.213V125.027H130.709V124.443H130.13V123.934H130.709V123.35H131.213V123.934H131.792V124.443Z" fill="#DB4744"/>
<path d="M131.01 132.044L131.065 132.153L131.12 132.044L131.877 130.541L131.9 130.498L131.922 130.448L131.91 130.389L131.837 130.081C131.938 130.033 132.033 129.98 132.121 129.916C132.406 130.369 133.344 130.329 133.344 130.329C133.076 129.793 133.314 129.734 133.414 128.348C133.445 128.164 133.45 127.971 133.427 127.777C133.327 127.043 133.038 126.552 132.7 126.223C132.685 126.211 132.672 126.196 132.657 126.183C132.655 126.18 132.652 126.178 132.652 126.178C132.005 125.586 131.205 125.563 131.205 125.563C130.363 125.442 129.721 125.733 129.29 126.18C129.29 126.18 129.267 126.198 129.232 126.236C129.041 126.441 128.442 127.18 128.527 128.348C128.628 129.734 128.868 129.793 128.598 130.329C128.598 130.329 129.473 130.369 129.789 129.962C129.871 129.987 129.942 130 129.992 130.005C130.069 130.051 130.15 130.088 130.232 130.124L130.175 130.367L130.17 130.387L130.237 130.529L131.002 132.041L131.01 132.044ZM131.82 129.995L131.795 130.008C131.549 130.121 131.278 130.187 130.992 130.187C130.443 130.187 129.947 129.952 129.598 129.575C129.277 129.097 129.252 128.442 129.305 128.093C130.629 127.587 131.213 126.648 131.213 126.648C131.737 128.093 132.966 127.822 132.6 129.041C132.509 129.38 132.356 129.603 132.206 129.75C132.088 129.846 131.96 129.927 131.822 129.995H131.82ZM131.065 131.935L130.28 130.382V130.377L130.333 130.159C130.538 130.233 130.761 130.273 130.992 130.273C131.26 130.273 131.516 130.22 131.749 130.121L131.822 130.435L131.065 131.932V131.935Z" fill="#30393A"/>
<path d="M131.626 128.204C131.626 128.108 131.704 128.032 131.797 128.032C131.89 128.032 131.967 128.11 131.967 128.204C131.967 128.298 131.89 128.376 131.797 128.376C131.704 128.376 131.626 128.298 131.626 128.204Z" fill="#404E51"/>
<path d="M130.232 128.357C130.144 128.357 130.072 128.283 130.072 128.194C130.072 128.106 130.144 128.032 130.232 128.032C130.32 128.032 130.393 128.106 130.393 128.194C130.393 128.283 130.32 128.357 130.232 128.357Z" fill="#404E51"/>
<path d="M131.985 130.448C132.798 130.653 133.485 131.095 133.931 131.677C134.28 132.132 134.483 132.674 134.483 133.253H131.21V132.082H132.118L131.983 130.448H131.985Z" fill="#30393A"/>
<path d="M126.371 132.352L126.506 132.289C126.857 132.127 127.211 132.213 127.444 132.314L127.517 132.347L127.564 132.368L127.572 132.19L127.604 131.487C127.619 131.156 127.366 130.873 127.038 130.857C126.83 130.847 126.634 130.946 126.516 131.12C126.453 131.212 126.418 131.318 126.413 131.429L126.368 132.352H126.371ZM126.566 132.072L126.596 131.437C126.599 131.361 126.624 131.285 126.667 131.222C126.749 131.1 126.885 131.032 127.03 131.04C127.258 131.05 127.436 131.247 127.424 131.477L127.394 132.099C127.183 132.029 126.88 131.973 126.566 132.072Z" fill="#30393A"/>
<path d="M127.7 132.287C127.7 132.287 127.707 132.289 127.71 132.292L127.718 132.297H127.692L127.697 132.287H127.7Z" fill="#E32228"/>
<path d="M127.67 132.385C127.67 132.385 127.677 132.388 127.68 132.39L127.687 132.395L127.81 132.378C128.194 132.325 128.507 132.509 128.7 132.674L128.8 132.757L129.091 131.925C129.202 131.611 129.036 131.267 128.728 131.158C128.642 131.128 128.552 131.118 128.464 131.128C128.352 131.141 128.244 131.186 128.151 131.26C128.066 131.33 128.003 131.422 127.965 131.525L127.943 131.588L127.735 132.185L127.68 132.345L127.665 132.385H127.67ZM127.933 132.185L128.141 131.586C128.166 131.513 128.211 131.449 128.269 131.401C128.382 131.308 128.532 131.282 128.668 131.33C128.883 131.406 128.996 131.647 128.921 131.864L128.715 132.451C128.535 132.322 128.259 132.18 127.93 132.183L127.933 132.185Z" fill="#30393A"/>
<path d="M126.348 133.225C126.333 133.541 126.576 133.812 126.89 133.827C127.03 133.835 127.166 133.789 127.271 133.703C127.294 133.685 127.316 133.663 127.336 133.64C127.344 133.63 127.354 133.62 127.361 133.61C127.371 133.597 127.379 133.587 127.389 133.574C127.434 133.506 127.464 133.43 127.479 133.352C127.484 133.329 127.487 133.303 127.487 133.281L127.502 132.982L127.517 132.689L127.529 132.443V132.4L127.524 132.398H127.499L127.504 132.388C127.487 132.38 127.469 132.37 127.449 132.362C127.291 132.289 127.018 132.201 126.724 132.261C126.729 132.269 126.624 132.289 126.624 132.289C126.549 132.314 126.474 132.347 126.398 132.395L126.386 132.403L126.346 133.23L126.348 133.225ZM126.509 132.446L126.78 132.365C126.652 132.441 126.632 132.532 126.632 132.532C126.361 133.374 126.649 133.655 126.649 133.655C126.245 133.412 126.509 132.446 126.509 132.446Z" fill="#DB4744"/>
<path d="M127.472 133.675C127.472 133.675 127.539 133.602 127.542 133.597C127.547 133.589 127.552 133.582 127.557 133.574C127.562 133.567 127.567 133.556 127.572 133.549C127.61 133.488 127.635 133.42 127.645 133.352C127.65 133.329 127.652 133.303 127.652 133.281L127.667 132.982L127.692 132.443C127.875 132.378 128.083 132.421 128.083 132.421C128.399 132.469 128.64 132.663 128.748 132.77L128.76 132.782L128.56 133.354L128.47 133.615C128.435 133.716 128.374 133.802 128.292 133.87C128.136 133.997 127.931 134.034 127.742 133.966C127.607 133.918 127.502 133.825 127.437 133.706C127.447 133.698 127.459 133.688 127.469 133.678L127.472 133.675Z" fill="#DB4744"/>
<path d="M128.944 132.76C128.954 132.739 128.961 132.719 128.969 132.699C128.969 132.699 128.969 132.699 128.969 132.696C128.976 132.684 128.981 132.671 128.989 132.658C128.989 132.658 128.989 132.656 128.989 132.653L128.996 132.661L129.287 131.829C129.397 131.515 129.232 131.171 128.923 131.062C128.838 131.032 128.748 131.022 128.66 131.032C129.079 130.733 129.58 130.513 130.135 130.405L129.997 132.087H130.924V133.258H128.755L128.911 132.815C128.921 132.8 128.933 132.782 128.941 132.765L128.944 132.76Z" fill="#30393A"/>
<path d="M109.756 141.565C109.756 144.929 112.459 147.656 115.794 147.656C119.129 147.656 121.832 144.929 121.832 141.565C121.832 138.201 119.129 135.474 115.794 135.474C112.459 135.474 109.756 138.201 109.756 141.565Z" fill="#069BA6"/>
<path d="M117.522 138.658C117.522 137.826 116.852 137.151 116.03 137.151C115.207 137.151 114.538 137.826 114.538 138.658C114.538 139.491 115.207 140.163 116.03 140.163C116.852 140.163 117.522 139.488 117.522 138.658Z" fill="white"/>
<path d="M118.332 140.33C119.259 140.69 119.252 141.345 119.254 141.378L119.259 143.707C119.259 143.707 119.259 143.922 119.134 144.054C119.066 144.125 118.968 144.16 118.843 144.16H118.755L118.332 140.33ZM112.905 145.033V141.577C113.023 140.161 114.63 140.163 114.701 140.163H117.198L116.431 143.077H115.992C115.641 143.077 115.358 143.366 115.358 143.717C115.358 144.069 115.643 144.36 115.992 144.36H117.775V145.445L114.109 145.447V141.909L113.876 142.212V145.028C113.876 145.303 113.658 145.521 113.389 145.521C113.121 145.521 112.905 145.301 112.905 145.033ZM116.183 144.152H115.99C115.751 144.152 115.558 143.958 115.558 143.717C115.558 143.477 115.751 143.282 115.99 143.282H116.356C116.265 143.512 116.132 143.912 116.183 144.152Z" fill="white"/>
<path d="M118.552 144.152L118.171 140.33C118.028 140.28 117.96 140.209 117.411 140.168C117.411 140.168 116.328 144.039 116.396 144.142C116.398 144.147 116.403 144.152 116.421 144.152H118.552Z" fill="#DB4744"/>
<path d="M104.896 77.6069H86.2026V131.728H104.896V77.6069Z" fill="#002FBF"/>
<path d="M92.2959 97.4835H72.5718V113.51H92.2959V97.4835Z" fill="#002FBF"/>
<path d="M108.053 115.724C117.585 115.724 125.312 110.96 125.312 105.085C125.312 99.2088 117.585 94.4456 108.053 94.4456C98.5212 94.4456 90.7939 99.2088 90.7939 105.085C90.7939 110.96 98.5212 115.724 108.053 115.724Z" fill="white"/>
<path d="M99.2795 109.091C101.473 109.091 103.251 107.297 103.251 105.085C103.251 102.872 101.473 101.078 99.2795 101.078C97.0859 101.078 95.3076 102.872 95.3076 105.085C95.3076 107.297 97.0859 109.091 99.2795 109.091Z" fill="#002FBF"/>
<path d="M99.292 107.523C100.621 107.523 101.699 106.446 101.699 105.118C101.699 103.789 100.621 102.712 99.292 102.712C97.9625 102.712 96.8848 103.789 96.8848 105.118C96.8848 106.446 97.9625 107.523 99.292 107.523Z" fill="#BF000A"/>
<path d="M104.53 103.908H102.978V106.142H104.53V103.908Z" fill="#002FBF"/>
<path d="M112.359 104.22H104.312V105.808H112.359V104.22Z" fill="#002FBF"/>
<path d="M99.3145 105.912C99.6732 105.912 99.9639 105.572 99.9639 105.153C99.9639 104.734 99.6732 104.394 99.3145 104.394C98.9558 104.394 98.665 104.734 98.665 105.153C98.665 105.572 98.9558 105.912 99.3145 105.912Z" fill="#BF000A"/>
<path d="M115.593 97.0915C117.91 96.8967 120.297 97.7112 121.975 99.2845C122.196 99.4995 122.173 99.8815 121.945 100.086C121.737 100.332 121.318 100.342 121.097 100.109C119.663 98.7963 117.652 98.1033 115.691 98.2753C114.061 98.4017 112.489 99.11 111.32 100.225C111.218 100.332 111.082 100.42 110.929 100.43C110.543 100.481 110.177 100.089 110.257 99.7171C110.28 99.583 110.365 99.4717 110.463 99.3806C111.832 98.0653 113.68 97.2432 115.593 97.0915Z" fill="#BF000A"/>
<path d="M115.566 99.3149C117.341 99.1024 119.194 99.7145 120.47 100.939C120.671 101.156 120.651 101.516 120.435 101.715C120.24 101.956 119.838 101.989 119.61 101.776C118.795 101.012 117.7 100.534 116.569 100.468C115.197 100.377 113.803 100.903 112.84 101.862C112.617 102.097 112.198 102.077 111.992 101.832C111.772 101.634 111.749 101.265 111.955 101.05C112.91 100.091 114.209 99.4717 115.568 99.3149H115.566Z" fill="#BF000A"/>
<path d="M115.859 101.505C116.98 101.381 118.144 101.784 118.936 102.568C119.152 102.783 119.134 103.157 118.911 103.362C118.71 103.605 118.301 103.628 118.076 103.405C117.629 102.97 117.018 102.699 116.386 102.674C115.669 102.634 114.949 102.919 114.447 103.42C114.325 103.559 114.139 103.645 113.948 103.628C113.507 103.602 113.191 103.033 113.492 102.682C114.096 102.021 114.964 101.607 115.862 101.508L115.859 101.505Z" fill="#BF000A"/>
<path d="M116.06 103.552C116.782 103.423 117.522 103.997 117.557 104.713C117.634 105.413 117.008 106.089 116.285 106.084C115.638 106.114 115.029 105.598 114.964 104.968C114.864 104.308 115.383 103.638 116.06 103.552ZM116.917 112.501C114.6 112.696 112.213 111.881 110.536 110.308C110.315 110.093 110.338 109.711 110.566 109.506C110.774 109.261 111.193 109.251 111.413 109.483C112.848 110.796 114.859 111.489 116.82 111.317C118.449 111.191 120.022 110.483 121.19 109.367C121.293 109.261 121.428 109.172 121.581 109.162C121.967 109.112 122.334 109.504 122.253 109.875C122.231 110.01 122.146 110.121 122.048 110.212C120.679 111.527 118.831 112.349 116.917 112.501Z" fill="#BF000A"/>
<path d="M116.945 110.278C115.169 110.49 113.316 109.878 112.04 108.654C111.84 108.436 111.86 108.077 112.075 107.877C112.271 107.637 112.672 107.604 112.9 107.816C113.715 108.58 114.811 109.058 115.942 109.124C117.313 109.215 118.708 108.689 119.67 107.73C119.894 107.495 120.312 107.515 120.518 107.761C120.739 107.958 120.761 108.327 120.556 108.545C119.6 109.504 118.301 110.123 116.942 110.28L116.945 110.278Z" fill="#BF000A"/>
<path d="M116.654 108.087C115.533 108.211 114.37 107.809 113.577 107.025C113.362 106.81 113.379 106.435 113.602 106.23C113.803 105.988 114.212 105.965 114.437 106.187C114.884 106.623 115.495 106.893 116.127 106.918C116.845 106.959 117.564 106.673 118.066 106.172C118.189 106.033 118.374 105.947 118.565 105.965C119.006 105.99 119.322 106.559 119.021 106.911C118.417 107.571 117.549 107.986 116.651 108.085L116.654 108.087Z" fill="#BF000A"/>
<path d="M116.28 106.084C117.009 106.084 117.599 105.512 117.599 104.806C117.599 104.101 117.009 103.529 116.28 103.529C115.552 103.529 114.961 104.101 114.961 104.806C114.961 105.512 115.552 106.084 116.28 106.084Z" fill="#002FBF"/>
</g>
</g>
<defs>
<filter id="filter0_ddi_567_3978" x="124.046" y="0" width="69.4541" height="230.6" filterUnits="userSpaceOnUse" color-interpolation-filters="sRGB">
<feFlood flood-opacity="0" result="BackgroundImageFix"/>
<feColorMatrix in="SourceAlpha" type="matrix" values="0 0 0 0 0 0 0 0 0 0 0 0 0 0 0 0 0 0 127 0" result="hardAlpha"/>
<feOffset dy="4"/>
<feGaussianBlur stdDeviation="2"/>
<feComposite in2="hardAlpha" operator="out"/>
<feColorMatrix type="matrix" values="0 0 0 0 0 0 0 0 0 0 0 0 0 0 0 0 0 0 0.25 0"/>
<feBlend mode="normal" in2="BackgroundImageFix" result="effect1_dropShadow_567_3978"/>
<feColorMatrix in="SourceAlpha" type="matrix" values="0 0 0 0 0 0 0 0 0 0 0 0 0 0 0 0 0 0 127 0" result="hardAlpha"/>
<feOffset dy="4"/>
<feGaussianBlur stdDeviation="2"/>
<feComposite in2="hardAlpha" operator="out"/>
<feColorMatrix type="matrix" values="0 0 0 0 0 0 0 0 0 0 0 0 0 0 0 0 0 0 0.25 0"/>
<feBlend mode="normal" in2="effect1_dropShadow_567_3978" result="effect2_dropShadow_567_3978"/>
<feBlend mode="normal" in="SourceGraphic" in2="effect2_dropShadow_567_3978" result="shape"/>
<feColorMatrix in="SourceAlpha" type="matrix" values="0 0 0 0 0 0 0 0 0 0 0 0 0 0 0 0 0 0 127 0" result="hardAlpha"/>
<feOffset dy="4"/>
<feGaussianBlur stdDeviation="2"/>
<feComposite in2="hardAlpha" operator="arithmetic" k2="-1" k3="1"/>
<feColorMatrix type="matrix" values="0 0 0 0 0 0 0 0 0 0 0 0 0 0 0 0 0 0 0.25 0"/>
<feBlend mode="normal" in2="shape" result="effect3_innerShadow_567_3978"/>
</filter>
<filter id="filter1_ddi_567_3978" x="0" y="0" width="69.4541" height="230.6" filterUnits="userSpaceOnUse" color-interpolation-filters="sRGB">
<feFlood flood-opacity="0" result="BackgroundImageFix"/>
<feColorMatrix in="SourceAlpha" type="matrix" values="0 0 0 0 0 0 0 0 0 0 0 0 0 0 0 0 0 0 127 0" result="hardAlpha"/>
<feOffset dy="4"/>
<feGaussianBlur stdDeviation="2"/>
<feComposite in2="hardAlpha" operator="out"/>
<feColorMatrix type="matrix" values="0 0 0 0 0 0 0 0 0 0 0 0 0 0 0 0 0 0 0.25 0"/>
<feBlend mode="normal" in2="BackgroundImageFix" result="effect1_dropShadow_567_3978"/>
<feColorMatrix in="SourceAlpha" type="matrix" values="0 0 0 0 0 0 0 0 0 0 0 0 0 0 0 0 0 0 127 0" result="hardAlpha"/>
<feOffset dy="4"/>
<feGaussianBlur stdDeviation="2"/>
<feComposite in2="hardAlpha" operator="out"/>
<feColorMatrix type="matrix" values="0 0 0 0 0 0 0 0 0 0 0 0 0 0 0 0 0 0 0.25 0"/>
<feBlend mode="normal" in2="effect1_dropShadow_567_3978" result="effect2_dropShadow_567_3978"/>
<feBlend mode="normal" in="SourceGraphic" in2="effect2_dropShadow_567_3978" result="shape"/>
<feColorMatrix in="SourceAlpha" type="matrix" values="0 0 0 0 0 0 0 0 0 0 0 0 0 0 0 0 0 0 127 0" result="hardAlpha"/>
<feOffset dy="4"/>
<feGaussianBlur stdDeviation="2"/>
<feComposite in2="hardAlpha" operator="arithmetic" k2="-1" k3="1"/>
<feColorMatrix type="matrix" values="0 0 0 0 0 0 0 0 0 0 0 0 0 0 0 0 0 0 0.25 0"/>
<feBlend mode="normal" in2="shape" result="effect3_innerShadow_567_3978"/>
</filter>
<filter id="filter2_d_567_3978" x="51.2124" y="60.5962" width="91.0767" height="95.5983" filterUnits="userSpaceOnUse" color-interpolation-filters="sRGB">
<feFlood flood-opacity="0" result="BackgroundImageFix"/>
<feColorMatrix in="SourceAlpha" type="matrix" values="0 0 0 0 0 0 0 0 0 0 0 0 0 0 0 0 0 0 127 0" result="hardAlpha"/>
<feOffset dy="4"/>
<feGaussianBlur stdDeviation="2"/>
<feComposite in2="hardAlpha" operator="out"/>
<feColorMatrix type="matrix" values="0 0 0 0 0 0 0 0 0 0 0 0 0 0 0 0 0 0 0.25 0"/>
<feBlend mode="normal" in2="BackgroundImageFix" result="effect1_dropShadow_567_3978"/>
<feBlend mode="normal" in="SourceGraphic" in2="effect1_dropShadow_567_3978" result="shape"/>
</filter>
<filter id="filter3_d_567_3978" x="51.2124" y="60.5962" width="91.0767" height="95.6008" filterUnits="userSpaceOnUse" color-interpolation-filters="sRGB">
<feFlood flood-opacity="0" result="BackgroundImageFix"/>
<feColorMatrix in="SourceAlpha" type="matrix" values="0 0 0 0 0 0 0 0 0 0 0 0 0 0 0 0 0 0 127 0" result="hardAlpha"/>
<feOffset dy="4"/>
<feGaussianBlur stdDeviation="2"/>
<feComposite in2="hardAlpha" operator="out"/>
<feColorMatrix type="matrix" values="0 0 0 0 0 0 0 0 0 0 0 0 0 0 0 0 0 0 0.25 0"/>
<feBlend mode="normal" in2="BackgroundImageFix" result="effect1_dropShadow_567_3978"/>
<feBlend mode="normal" in="SourceGraphic" in2="effect1_dropShadow_567_3978" result="shape"/>
</filter>
<linearGradient id="paint0_linear_567_3978" x1="225.19" y1="-3.81805" x2="225.19" y2="225.273" gradientUnits="userSpaceOnUse">
<stop stop-color="#BF000A" stop-opacity="0.29"/>
<stop offset="0.48" stop-color="#BF000A"/>
<stop offset="1" stop-color="#BF000A" stop-opacity="0.29"/>
</linearGradient>
<linearGradient id="paint1_linear_567_3978" x1="-31.6899" y1="-3.81805" x2="-31.6899" y2="225.273" gradientUnits="userSpaceOnUse">
<stop stop-color="#BF000A" stop-opacity="0.29"/>
<stop offset="0.48" stop-color="#BF000A"/>
<stop offset="1" stop-color="#BF000A" stop-opacity="0.29"/>
</linearGradient>
<clipPath id="clip0_567_3978">
<rect width="83.0767" height="87.5983" fill="white" transform="translate(55.2124 60.5962)"/>
</clipPath>
</defs>
</svg>
